<?xml version="1.0" encoding="UTF-8" standalone="no"?>
<svg
   xmlns:dc="http://purl.org/dc/elements/1.1/"
   xmlns:cc="http://creativecommons.org/ns#"
   xmlns:rdf="http://www.w3.org/1999/02/22-rdf-syntax-ns#"
   xmlns:svg="http://www.w3.org/2000/svg"
   xmlns="http://www.w3.org/2000/svg"
   xmlns:sodipodi="http://sodipodi.sourceforge.net/DTD/sodipodi-0.dtd"
   xmlns:inkscape="http://www.inkscape.org/namespaces/inkscape"
   width="210mm"
   height="297mm"
   viewBox="0 0 210 297"
   version="1.1"
   id="svg8"
   inkscape:version="1.0.2 (394de47547, 2021-03-26)"
   sodipodi:docname="robot-hand.svg">
  <defs
     id="defs2" />
  <sodipodi:namedview
     id="base"
     pagecolor="#ffffff"
     bordercolor="#666666"
     borderopacity="1.0"
     inkscape:pageopacity="0.0"
     inkscape:pageshadow="2"
     inkscape:zoom="2.8728238"
     inkscape:cx="412.21715"
     inkscape:cy="536.69486"
     inkscape:document-units="mm"
     inkscape:current-layer="layer1"
     inkscape:document-rotation="0"
     showgrid="false"
     inkscape:window-width="1848"
     inkscape:window-height="1016"
     inkscape:window-x="72"
     inkscape:window-y="27"
     inkscape:window-maximized="1" />
  <metadata
     id="metadata5">
    <rdf:RDF>
      <cc:Work
         rdf:about="">
        <dc:format>image/svg+xml</dc:format>
        <dc:type
           rdf:resource="http://purl.org/dc/dcmitype/StillImage" />
        <dc:title></dc:title>
      </cc:Work>
    </rdf:RDF>
  </metadata>
  <g
     inkscape:label="Layer 1"
     inkscape:groupmode="layer"
     id="layer1">
    <path
       style="fill:#000000;stroke-width:0.0846667"
       d="m 93.880436,154.18442 v -1.45054 l 0.87543,-0.94129 c 0.48149,-0.51771 1.08288,-1.16535 1.33643,-1.43921 l 0.461,-0.49791 0.45074,0.65202 0.45075,0.65203 -0.19968,0.22324 c -0.40155,0.44894 -0.59571,0.56174 -0.92582,0.53791 -0.66539,-0.048 -1.14483,0.45381 -1.07167,1.12176 0.0363,0.33157 0.0127,0.37504 -0.47507,0.87656 l -0.51329,0.52769 0.24625,0.25702 0.24624,0.25703 0.51412,-0.50955 c 0.46739,-0.46323 0.54701,-0.50955 0.87588,-0.50955 0.70786,0 1.15116,-0.44547 1.10327,-1.10866 -0.0221,-0.30625 0.0169,-0.37334 0.50206,-0.86281 0.31858,-0.32145 0.52602,-0.60283 0.52602,-0.71353 0,-0.10053 -0.2667,-0.56868 -0.59266,-1.04033 -0.32597,-0.47165 -0.59267,-0.88607 -0.59267,-0.92094 0,-0.0349 0.11483,-0.17339 0.25518,-0.30786 0.22047,-0.21123 0.27049,-0.22777 0.36779,-0.12167 0.0619,0.0675 0.47829,0.54506 0.92522,1.06116 l 0.8126,0.93836 -0.63056,0.62635 c -0.67382,0.66933 -0.78793,0.86211 -0.62585,1.0574 0.0563,0.0678 0.10707,0.37151 0.11282,0.67483 l 0.0105,0.55149 -0.8255,0.82235 c -0.45402,0.45229 -0.8255,0.87069 -0.8255,0.92977 0,0.0825 -0.32482,0.10743 -1.397,0.10743 h -1.397 z m 4.29913,0.74985 c 0.66397,-0.66744 0.71259,-0.69922 1.02432,-0.66949 0.61492,0.0586 1.111214,-0.3882 1.111214,-1.00048 0,-0.53678 -0.445614,-1.016 -0.944754,-1.016 -0.1713,0 -0.15222,-0.0397 0.18363,-0.38189 0.20613,-0.21004 0.39913,-0.37196 0.42887,-0.35983 0.0297,0.0121 0.385014,0.40093 0.789494,0.864 l 0.7354,0.84195 -1.20906,1.21122 -1.209054,1.21122 h -0.80356 -0.80356 z m 0.91392,-1.46435 c -0.0732,-0.0732 -0.13305,-0.16571 -0.13305,-0.20562 0,-0.0399 0.0599,-0.13244 0.13305,-0.20562 0.0732,-0.0732 0.1657,-0.13305 0.20561,-0.13305 0.0399,0 0.13245,0.0599 0.20562,0.13305 0.0732,0.0732 0.13305,0.1657 0.13305,0.20562 0,0.0399 -0.0599,0.13244 -0.13305,0.20562 -0.0732,0.0732 -0.1657,0.13304 -0.20562,0.13304 -0.0399,0 -0.13244,-0.0599 -0.20561,-0.13304 z m -3.048,-0.33867 c -0.0732,-0.0732 -0.13305,-0.1657 -0.13305,-0.20562 0,-0.0399 0.0599,-0.13244 0.13305,-0.20562 0.0732,-0.0732 0.1657,-0.13305 0.20561,-0.13305 0.0399,0 0.13245,0.0599 0.20562,0.13305 0.0732,0.0732 0.13305,0.16571 0.13305,0.20562 0,0.0399 -0.0599,0.13244 -0.13305,0.20562 -0.0732,0.0732 -0.1657,0.13305 -0.20562,0.13305 -0.0399,0 -0.13244,-0.0599 -0.20561,-0.13305 z m 5.844554,-1.44188 c 0.25273,-0.49921 0.26955,-1.19147 0.0412,-1.69438 l -0.15818,-0.34832 0.63565,-0.53046 0.63565,-0.53046 0.28926,0.13794 c 0.54787,0.26127 1.36112,0.14345 1.82675,-0.26464 0.0804,-0.0705 1.02418,-0.34329 2.09723,-0.60622 l 1.95101,-0.47807 0.0896,0.33293 0.0896,0.33293 -0.77338,0.77661 c -1.10535,1.10997 -1.8916,1.53208 -4.56006,2.44813 -1.14858,0.39429 -2.15113,0.74124 -2.22789,0.77101 -0.11422,0.0443 -0.10268,-0.0188 0.0635,-0.347 z m -1.66538,-1.05557 c -0.999924,-1.1783 -0.989304,-1.15946 -0.712814,-1.26458 0.31678,-0.12044 0.543834,-0.10223 0.933764,0.0749 0.69825,0.31717 1.07983,1.07471 0.8698,1.72682 -0.0612,0.19006 -0.15201,0.35869 -0.20175,0.37473 -0.0498,0.016 -0.4498,-0.3943 -0.889,-0.91186 z m 0.77457,-1.73678 c -0.43659,-0.29959 -1.056284,-0.40206 -1.573134,-0.26012 -0.23283,0.0639 -0.49185,0.14545 -0.5756,0.18113 -0.15388,0.0656 0.41498,-0.92553 1.614614,-2.81303 0.31846,-0.50107 0.91981,-1.51075 1.33634,-2.24373 l 0.75732,-1.33269 0.36656,-8.5e-4 c 0.35516,-7.6e-4 0.36508,0.006 0.31878,0.23203 -0.0263,0.12806 -0.1673,0.95673 -0.31337,1.8415 -0.14999,0.90856 -0.33479,1.74538 -0.42461,1.92279 -0.18269,0.36087 -0.21014,1.04738 -0.0555,1.38687 0.11095,0.24352 0.0456,0.32271 -0.86557,1.04864 l -0.29633,0.2361 -0.28954,-0.19868 z m 2.61787,-0.85757 c -0.80776,-0.41293 -0.70372,-1.55091 0.16561,-1.81137 0.45091,-0.1351 0.91314,0.0889 1.13926,0.55214 0.14689,0.30089 0.15081,0.36288 0.0423,0.66966 -0.21299,0.60239 -0.81057,0.8639 -1.34721,0.58957 z m -4.995334,-2.12619 v -1.62193 l 0.74991,-0.37663 0.749914,-0.37663 0.0563,0.73186 c 0.0554,0.72026 0.052,0.73862 -0.214224,1.15895 -0.14876,0.23489 -0.4898,0.78318 -0.75788,1.21841 -0.26807,0.43523 -0.50913,0.81305 -0.53568,0.83961 -0.0266,0.0266 -0.0483,-0.68158 -0.0483,-1.57364 z m 7.112004,1.28932 c 0,-0.2501 0.0801,-0.32869 1.01873,-0.99953 0.56031,-0.40045 1.04954,-0.72809 1.0872,-0.72809 0.0376,0 0.11483,0.20721 0.1715,0.46046 0.0824,0.3684 0.15668,0.49442 0.3713,0.63031 0.32186,0.20378 0.40877,0.16518 -1.31523,0.58419 l -1.3335,0.32411 z m 4.1613,-0.14617 c -0.0891,-0.35374 -0.4105,-0.73604 -0.708,-0.84209 -0.13463,-0.048 -0.14024,-0.0427 0.50629,-0.47637 0.29182,-0.19574 0.56312,-0.33578 0.60288,-0.31121 0.0398,0.0246 0.20643,0.26985 0.37037,0.54505 l 0.29807,0.50038 -0.48701,0.48192 -0.48701,0.48193 z m -4.61896,-1.0646 c -0.13857,-0.15312 -0.12233,-0.20621 0.35346,-1.15515 l 0.49872,-0.99465 0.18087,0.29266 c 0.11413,0.18467 0.33702,0.3658 0.60401,0.49085 0.23273,0.109 0.40542,0.22687 0.38376,0.26192 -0.0643,0.10407 -1.71499,1.26486 -1.79866,1.26486 -0.0423,0 -0.14228,-0.0722 -0.22216,-0.16049 z m 5.91748,-0.55532 c -0.17014,-0.26596 -0.29662,-0.49274 -0.28108,-0.50396 0.0156,-0.0112 0.15484,-0.10787 0.30954,-0.21477 l 0.28127,-0.19436 0.14206,0.19514 c 0.46978,0.64531 0.46466,0.61308 0.1466,0.92135 l -0.28906,0.28017 z m -7.66131,0.008 c 3.4e-4,-0.14982 0.43443,-2.63302 0.46579,-2.66437 0.0179,-0.0179 0.13959,0.0427 0.27033,0.13484 0.24178,0.17033 0.30256,0.19354 0.93439,0.35675 l 0.35802,0.0925 -0.52244,1.04886 -0.52245,1.04885 -0.4919,0.0279 c -0.27054,0.0153 -0.49182,-0.005 -0.49174,-0.0453 z m 5.03525,-0.33353 c -0.0881,-0.42311 -0.26278,-0.63311 -0.71862,-0.86409 -0.23199,-0.11756 -0.42181,-0.22836 -0.42181,-0.2462 0,-0.0178 0.40238,-0.40506 0.89416,-0.86047 l 0.89417,-0.82801 0.55756,0.55757 0.55756,0.55756 -0.85332,0.97715 -0.85332,0.97715 -0.0564,-0.27066 z m 3.81793,-0.60982 c -0.23979,-0.31439 -0.22682,-0.46517 0.04,-0.46517 0.2445,0 0.45632,0.36715 0.33866,0.58699 -0.0515,0.0963 -0.10685,0.17501 -0.12296,0.17501 -0.0161,0 -0.13119,-0.13357 -0.25572,-0.29683 z m -13.763694,-1.68588 v -0.62805 l 0.65646,-0.21862 c 0.36105,-0.12024 0.6849,-0.21862 0.71966,-0.21862 0.0348,0 0.0632,0.22818 0.0632,0.50706 v 0.50705 l -0.675454,0.33961 c -0.3715,0.18679 -0.69535,0.33961 -0.71967,0.33961 -0.0243,0 -0.0442,-0.28262 -0.0442,-0.62804 z m 8.043334,0.54941 c 0,-0.0433 -0.12382,-0.20981 -0.27516,-0.37012 -0.19305,-0.20449 -0.38256,-0.30958 -0.635,-0.35214 -0.19791,-0.0334 -0.35984,-0.0794 -0.35984,-0.10232 0,-0.0343 1.05921,-1.32722 1.39271,-1.69999 0.0737,-0.0824 0.21704,-0.0173 0.65263,0.29633 0.30702,0.22103 0.56848,0.43441 0.58103,0.47417 0.0274,0.0869 -1.2021,1.828 -1.29287,1.83077 -0.0349,0.001 -0.0635,-0.0335 -0.0635,-0.0767 z m 3.5981,-1.02227 -0.50426,-0.50958 0.52639,-0.52638 0.52638,-0.52638 0.4667,0.4609 c 0.25668,0.25349 0.46669,0.48484 0.46669,0.51411 0,0.061 -0.84335,1.04201 -0.92423,1.07507 -0.0294,0.012 -0.28033,-0.20748 -0.55767,-0.48774 z m -6.13571,-0.38518 c -0.22208,-0.15659 -0.40318,-0.20725 -0.74083,-0.20725 -0.24579,0 -0.44689,-0.0196 -0.44689,-0.0435 0,-0.0239 0.24748,-0.53742 0.54996,-1.14104 l 0.54995,-1.09749 0.65245,0.29733 c 0.35886,0.16354 0.6642,0.30908 0.67855,0.32343 0.0475,0.0475 -0.79758,2.03418 -0.87418,2.05521 -0.0413,0.0113 -0.20734,-0.0727 -0.36901,-0.18665 z m -5.480394,-0.83856 c 0.0606,-0.37311 0.24103,-0.60218 0.53197,-0.6752 0.31646,-0.0794 0.79737,0.22346 0.79737,0.5022 0,0.0157 -0.25718,0.11339 -0.5715,0.21713 -0.31433,0.10374 -0.62515,0.20849 -0.69072,0.23276 -0.0946,0.035 -0.10846,-0.0221 -0.0671,-0.27689 z m 13.138034,-0.38703 c -0.34477,-0.35003 -0.39791,-0.44178 -0.29394,-0.5075 0.38994,-0.24651 0.96234,0.1353 0.91534,0.61056 -0.0145,0.14698 -0.0656,0.28006 -0.11349,0.29573 -0.0479,0.0157 -0.27644,-0.16379 -0.50791,-0.39879 z m -3.87225,-0.15251 -0.5679,-0.40886 0.72301,-0.86309 0.723,-0.8631 0.35523,0.25892 c 0.75938,0.55349 0.71847,0.44631 0.36236,0.94946 -0.17381,0.24559 -0.45608,0.64609 -0.62725,0.89002 -0.17117,0.24392 -0.33132,0.44395 -0.35589,0.4445 -0.0246,5.9e-4 -0.30021,-0.18298 -0.61256,-0.40785 z m -2.89878,-1.46696 c -0.32596,-0.14412 -0.60468,-0.27247 -0.61937,-0.28521 -0.0461,-0.04 0.49161,-1.05648 0.55709,-1.05303 0.0343,0.002 0.3169,0.12563 0.62809,0.27517 l 0.56581,0.27188 -0.21494,0.52917 c -0.11821,0.29104 -0.23947,0.52802 -0.26947,0.52662 -0.03,-10e-4 -0.32124,-0.12047 -0.64721,-0.2646 z m 4.78233,-0.83393 c -0.25538,-0.19022 -0.47584,-0.37868 -0.48992,-0.41882 -0.0393,-0.11195 0.33534,-0.34277 0.55628,-0.34277 0.25459,0 0.61231,0.35927 0.61231,0.61497 0,0.10963 -0.0482,0.26528 -0.10717,0.3459 -0.0985,0.13476 -0.14457,0.11871 -0.5715,-0.19928 z m -3.95599,-0.92041 c -0.29059,-0.12905 -0.5513,-0.25759 -0.57937,-0.28566 -0.097,-0.097 0.46843,-0.32182 0.67741,-0.26937 0.291,0.073 0.49008,0.32305 0.4578,0.57493 l -0.0275,0.21472 z"
       id="path24" />
  </g>
</svg>
